<svg width="38.000000" height="38.000000" viewBox="0 0 38 38" fill="none" xmlns="http://www.w3.org/2000/svg" xmlns:xlink="http://www.w3.org/1999/xlink">
	<desc>
			Created with Pixso.
	</desc>
	<defs>
		<clipPath id="clip7_163">
			<rect id="Документ успеха" width="38.000000" height="38.000000" fill="white" fill-opacity="0"/>
		</clipPath>
	</defs>
	<g clip-path="url(#clip7_163)">
		<path id="path" d="M14.06 5.5L6.21 5.5C5.34 5.5 4.64 6.2 4.64 7.07L4.64 14.92C4.64 15.79 5.34 16.5 6.21 16.5L14.06 16.5C14.93 16.5 15.64 15.79 15.64 14.92L15.64 7.07C15.64 6.2 14.93 5.5 14.06 5.5Z" fill="#000000" fill-opacity="0" fill-rule="nonzero"/>
		<path id="path" d="M6.21 5.5C5.34 5.5 4.64 6.2 4.64 7.07L4.64 14.92C4.64 15.79 5.34 16.5 6.21 16.5L14.06 16.5C14.93 16.5 15.64 15.79 15.64 14.92L15.64 7.07C15.64 6.2 14.93 5.5 14.06 5.5L6.21 5.5Z" stroke="#FFFFFF" stroke-opacity="1.000000" stroke-width="2.000000" stroke-linejoin="round"/>
		<path id="path" d="M14.06 22.5L6.21 22.5C5.34 22.5 4.64 23.2 4.64 24.07L4.64 31.92C4.64 32.79 5.34 33.5 6.21 33.5L14.06 33.5C14.93 33.5 15.64 32.79 15.64 31.92L15.64 24.07C15.64 23.2 14.93 22.5 14.06 22.5Z" fill="#000000" fill-opacity="0" fill-rule="nonzero"/>
		<path id="path" d="M6.21 22.5C5.34 22.5 4.64 23.2 4.64 24.07L4.64 31.92C4.64 32.79 5.34 33.5 6.21 33.5L14.06 33.5C14.93 33.5 15.64 32.79 15.64 31.92L15.64 24.07C15.64 23.2 14.93 22.5 14.06 22.5L6.21 22.5Z" stroke="#FFFFFF" stroke-opacity="1.000000" stroke-width="2.000000" stroke-linejoin="round"/>
		<path id="path" d="M31.06 5.5L23.21 5.5C22.34 5.5 21.64 6.2 21.64 7.07L21.64 14.92C21.64 15.79 22.34 16.5 23.21 16.5L31.06 16.5C31.93 16.5 32.64 15.79 32.64 14.92L32.64 7.07C32.64 6.2 31.93 5.5 31.06 5.5Z" fill="#000000" fill-opacity="0" fill-rule="nonzero"/>
		<path id="path" d="M23.21 5.5C22.34 5.5 21.64 6.2 21.64 7.07L21.64 14.92C21.64 15.79 22.34 16.5 23.21 16.5L31.06 16.5C31.93 16.5 32.64 15.79 32.64 14.92L32.64 7.07C32.64 6.2 31.93 5.5 31.06 5.5L23.21 5.5Z" stroke="#FFFFFF" stroke-opacity="1.000000" stroke-width="2.000000" stroke-linejoin="round"/>
		<path id="path" d="M31.06 22.5L23.21 22.5C22.34 22.5 21.64 23.2 21.64 24.07L21.64 31.92C21.64 32.79 22.34 33.5 23.21 33.5L31.06 33.5C31.93 33.5 32.64 32.79 32.64 31.92L32.64 24.07C32.64 23.2 31.93 22.5 31.06 22.5Z" fill="#000000" fill-opacity="0" fill-rule="nonzero"/>
		<path id="path" d="M23.21 22.5C22.34 22.5 21.64 23.2 21.64 24.07L21.64 31.92C21.64 32.79 22.34 33.5 23.21 33.5L31.06 33.5C31.93 33.5 32.64 32.79 32.64 31.92L32.64 24.07C32.64 23.2 31.93 22.5 31.06 22.5L23.21 22.5Z" stroke="#FFFFFF" stroke-opacity="1.000000" stroke-width="2.000000" stroke-linejoin="round"/>
	</g>
</svg>
