<svg width="38.000000" height="38.000000" viewBox="0 0 38 38" fill="none" xmlns="http://www.w3.org/2000/svg" xmlns:xlink="http://www.w3.org/1999/xlink">
	<desc>
			Created with Pixso.
	</desc>
	<defs>
		<clipPath id="clip7_34">
			<rect id="Документ успеха" width="38.000000" height="38.000000" fill="white" fill-opacity="0"/>
		</clipPath>
	</defs>
	<g clip-path="url(#clip7_34)">
		<path id="path" d="M30.08 3.16L7.91 3.16C7.04 3.16 6.33 3.87 6.33 4.75L6.33 33.25C6.33 34.12 7.04 34.83 7.91 34.83L30.08 34.83C30.95 34.83 31.66 34.12 31.66 33.25L31.66 4.75C31.66 3.87 30.95 3.16 30.08 3.16Z" fill="#000000" fill-opacity="0" fill-rule="nonzero"/>
		<path id="path" d="M7.91 3.16C7.04 3.16 6.33 3.87 6.33 4.75L6.33 33.25C6.33 34.12 7.04 34.83 7.91 34.83L30.08 34.83C30.95 34.83 31.66 34.12 31.66 33.25L31.66 4.75C31.66 3.87 30.95 3.16 30.08 3.16L7.91 3.16Z" stroke="#FFFFFF" stroke-opacity="1.000000" stroke-width="2.500000" stroke-linejoin="round"/>
		<path id="path" d="M13.47 24.98L13.45 25C12.75 25 12.2 24.45 12.2 23.75C12.2 23.05 12.75 22.5 13.45 22.5L13.47 22.52L13.47 24.98ZM24.52 22.52L24.54 22.5C25.24 22.5 25.79 23.05 25.79 23.75C25.79 24.45 25.24 25 24.54 25L24.52 24.98L24.52 22.52Z" fill="#000000" fill-opacity="0" fill-rule="nonzero"/>
		<path id="path" d="M13.45 23.75L24.54 23.75" stroke="#FFFFFF" stroke-opacity="1.000000" stroke-width="2.500000" stroke-linejoin="round" stroke-linecap="round"/>
		<path id="path" d="M13.47 29.73L13.45 29.75C12.75 29.75 12.2 29.2 12.2 28.5C12.2 27.8 12.75 27.25 13.45 27.25L13.47 27.27L13.47 29.73ZM18.98 27.27L19 27.25C19.7 27.25 20.25 27.8 20.25 28.5C20.25 29.2 19.7 29.75 19 29.75L18.98 29.73L18.98 27.27Z" fill="#000000" fill-opacity="0" fill-rule="nonzero"/>
		<path id="path" d="M13.45 28.5L19 28.5" stroke="#FFFFFF" stroke-opacity="1.000000" stroke-width="2.500000" stroke-linejoin="round" stroke-linecap="round"/>
		<path id="path" d="M22.86 9.43L22.86 9.4C23.36 8.91 24.13 8.91 24.63 9.4C25.12 9.9 25.12 10.68 24.63 11.17L24.6 11.17L22.86 9.43ZM13.39 14.34L13.36 14.34C12.87 13.84 12.87 13.06 13.36 12.57C13.86 12.07 14.63 12.07 15.13 12.57L15.13 12.6L13.39 14.34Z" fill="#000000" fill-opacity="0" fill-rule="nonzero"/>
		<path id="path" d="M23.75 10.29L17.41 16.62L14.25 13.45" stroke="#FFFFFF" stroke-opacity="1.000000" stroke-width="2.500000" stroke-linejoin="round" stroke-linecap="round"/>
	</g>
</svg>
