<svg width="40.279999" height="38.000000" viewBox="0 0 40.28 38" fill="none" xmlns="http://www.w3.org/2000/svg" xmlns:xlink="http://www.w3.org/1999/xlink">
	<desc>
			Created with Pixso.
	</desc>
	<defs>
		<clipPath id="clip7_41">
			<rect id="Документ успеха" width="40.279999" height="38.000000" fill="white" fill-opacity="0"/>
		</clipPath>
	</defs>
	<g clip-path="url(#clip7_41)">
		<path id="path" d="M5.14 32.91L5.14 17.08C5.14 16.2 5.84 15.5 6.72 15.5L16.22 15.5L22.55 15.5C23.43 15.5 24.14 16.2 24.14 17.08L24.14 23.41L24.14 32.91C24.14 33.79 23.43 34.5 22.55 34.5L6.72 34.5C5.84 34.5 5.14 33.79 5.14 32.91Z" fill="#000000" fill-opacity="0" fill-rule="nonzero"/>
		<path id="path" d="M5.14 17.08C5.14 16.2 5.84 15.5 6.72 15.5L16.22 15.5L22.55 15.5C23.43 15.5 24.14 16.2 24.14 17.08L24.14 23.41L24.14 32.91C24.14 33.79 23.43 34.5 22.55 34.5L6.72 34.5C5.84 34.5 5.14 33.79 5.14 32.91L5.14 17.08Z" stroke="#FFFFFF" stroke-opacity="1.000000" stroke-width="2.000000" stroke-linejoin="round"/>
		<path id="path" d="M35.14 6.08L35.14 21.91C35.14 22.79 34.43 23.5 33.55 23.5L25.64 23.5C24.76 23.5 24.05 22.79 24.05 21.91L24.05 17.16C24.05 16.29 23.34 15.58 22.47 15.58L17.72 15.58C16.84 15.58 16.14 14.87 16.14 14L16.14 6.08C16.14 5.2 16.84 4.5 17.72 4.5L33.55 4.5C34.43 4.5 35.14 5.2 35.14 6.08Z" fill="#000000" fill-opacity="0" fill-rule="nonzero"/>
		<path id="path" d="M35.14 21.91C35.14 22.79 34.43 23.5 33.55 23.5L25.64 23.5C24.76 23.5 24.05 22.79 24.05 21.91L24.05 17.16C24.05 16.29 23.34 15.58 22.47 15.58L17.72 15.58C16.84 15.58 16.14 14.87 16.14 14L16.14 6.08C16.14 5.2 16.84 4.5 17.72 4.5L33.55 4.5C34.43 4.5 35.14 5.2 35.14 6.08L35.14 21.91Z" stroke="#FFFFFF" stroke-opacity="1.000000" stroke-width="2.000000" stroke-linejoin="round"/>
	</g>
</svg>
