<svg width="38.000000" height="38.000000" viewBox="0 0 38 38" fill="none" xmlns="http://www.w3.org/2000/svg" xmlns:xlink="http://www.w3.org/1999/xlink">
	<desc>
			Created with Pixso.
	</desc>
	<defs>
		<clipPath id="clip7_132">
			<rect id="Документ успеха" width="38.000000" height="38.000000" fill="white" fill-opacity="0"/>
		</clipPath>
	</defs>
	<g clip-path="url(#clip7_132)">
		<path id="path" d="M19 34C27.28 34 34 27.28 34 19C34 10.71 27.28 4 19 4C10.71 4 4 10.71 4 19C4 27.28 10.71 34 19 34Z" fill="#000000" fill-opacity="0" fill-rule="nonzero"/>
		<path id="path" d="M34 19C34 10.71 27.28 4 19 4C10.71 4 4 10.71 4 19C4 27.28 10.71 34 19 34C27.28 34 34 27.28 34 19Z" stroke="#FFFFFF" stroke-opacity="1.000000" stroke-width="2.000000" stroke-linejoin="round"/>
		<path id="path" d="M17.02 8.01L17 7.99C17 7.43 17.44 6.99 18 7C18.56 7 19 7.44 19 8L18.98 8.02L17.02 8.01ZM26.6 23.23L26.63 23.22C27.06 23.58 27.12 24.2 26.77 24.63C26.41 25.06 25.79 25.12 25.36 24.77L25.35 24.74L26.6 23.23Z" fill="#000000" fill-opacity="0" fill-rule="nonzero"/>
		<path id="path" d="M18 8L18 17.37L26 24" stroke="#FFFFFF" stroke-opacity="1.000000" stroke-width="2.000000" stroke-linejoin="round" stroke-linecap="round"/>
	</g>
</svg>
